# xmcd CD database file
#
# Track frame offsets:
#	150
#	9341
#	22103
#	36116
#	51898
#	66974
#	80568
#	94253
#	111175
#	133150
#	145551
#	162223
#	177322
#
# Disc length: 2563 seconds
#
# Revision: 1
# Processed by: cddbd v1.5.1PL2 Copyright (c) Steve Scherf et al.
# Submitted via: CDex 1.51
#
DISCID=ad0a010d
DTITLE=The Monochrome Set - Eligible Bachelors
DYEAR=1900
DGENRE=Rock
TTITLE0=The Jet Set Junta
TTITLE1=I'll Scary Instead
TTITLE2=On The 13th Day
TTITLE3=Cloud 10
TTITLE4=The Mating Game
TTITLE5=March of The Eligible Bachelors
TTITLE6=The Devil Ride Out
TTITLE7=Fun For All The Family
TTITLE8=The Midas Touch
TTITLE9=The Ruling Class
TTITLE10=The Great Barrier Riff
TTITLE11=J.D.H.A.N.E.Y.
TTITLE12=Cast A Long Shadow
EXTD=
EXTT0=
EXTT1=
EXTT2=
EXTT3=
EXTT4=
EXTT5=
EXTT6=
EXTT7=
EXTT8=
EXTT9=
EXTT10=
EXTT11=
EXTT12=
PLAYORDER=
